HIERARCHY
ROOT Hips
{
	OFFSET	0.00	0.00	0.00
	CHANNELS 6 Xposition Yposition Zposition Zrotation Xrotation Yrotation
	JOINT Chest
	{
		OFFSET	0.00	6.27	0.00
		CHANNELS 3 Zrotation Xrotation Yrotation
		JOINT Neck
		{
			OFFSET	0.00	14.30	0.00
			CHANNELS 3 Zrotation Xrotation Yrotation
			JOINT Head
			{
				OFFSET	0.00	2.64	0.00
				CHANNELS 3 Zrotation Xrotation Yrotation
				End Site
				{
					OFFSET	0.00	4.50	0.00
				}
			}
		}
		JOINT LeftCollar
		{
			OFFSET	1.12	11.36	1.87
			CHANNELS 3 Zrotation Xrotation Yrotation
			JOINT LeftUpArm
			{
				OFFSET	4.57	2.02	-1.82
				CHANNELS 3 Zrotation Xrotation Yrotation
				JOINT LeftLowArm
				{
					OFFSET	0.22	-10.35	-0.06
					CHANNELS 3 Zrotation Xrotation Yrotation
					JOINT LeftHand
					{
						OFFSET	0.09	-10.35	2.18
						CHANNELS 3 Zrotation Xrotation Yrotation
						End Site
						{
							OFFSET	0.13	-6.69	1.71
						}
					}
				}
			}
		}
		JOINT RightCollar
		{
			OFFSET	-1.12	11.36	1.87
			CHANNELS 3 Zrotation Xrotation Yrotation
			JOINT RightUpArm
			{
				OFFSET	-4.70	2.03	-1.82
				CHANNELS 3 Zrotation Xrotation Yrotation
				JOINT RightLowArm
				{
					OFFSET	-0.26	-10.43	-0.06
					CHANNELS 3 Zrotation Xrotation Yrotation
					JOINT RightHand
					{
						OFFSET	0.00	-10.26	2.18
						CHANNELS 3 Zrotation Xrotation Yrotation
						End Site
						{
							OFFSET	-0.14	-6.67	1.71
						}
					}
				}
			}
		}
	}
	JOINT LeftUpLeg
	{
		OFFSET	3.91	0.00	0.00
		CHANNELS 3 Zrotation Xrotation Yrotation
		JOINT LeftLowLeg
		{
			OFFSET	-0.44	-17.57	1.70
			CHANNELS 3 Zrotation Xrotation Yrotation
			JOINT LeftFoot
			{
				OFFSET	-0.04	-17.20	-1.48
				CHANNELS 3 Zrotation Xrotation Yrotation
				End Site
				{
					OFFSET	0.00	-3.93	5.23
				}
			}
		}
	}
	JOINT RightUpLeg
	{
		OFFSET	-3.91	0.00	0.00
		CHANNELS 3 Zrotation Xrotation Yrotation
		JOINT RightLowLeg
		{
			OFFSET	0.44	-17.62	1.70
			CHANNELS 3 Zrotation Xrotation Yrotation
			JOINT RightFoot
			{
				OFFSET	0.00	-17.14	-1.48
				CHANNELS 3 Zrotation Xrotation Yrotation
				End Site
				{
					OFFSET	0.00	-4.04	5.23
				}
			}
		}
	}
}
MOTION
Frames: 24
Frame Time: 0.04166667
-1.18	3.96	-2.68	20.10	-8.97	61.54	7.40	-0.82	-10.63	7.40	16.83	6.23	-11.18	3.26	-2.67	-1.76	-12.64	-18.80	9.84	5.09	-61.73	1.76	-14.76	-0.13	-4.92	2.51	-1.04	6.37	-13.55	8.39	-24.15	36.28	-23.77	3.15	4.40	1.89	-32.91	4.37	-6.69	-8.60	36.32	23.91	-1.25	12.31	1.61	-10.83	-10.80	-1.11	-3.11	2.41	-1.20	2.99	9.71	9.84	-5.00	8.40	6.27
-0.89	4.06	-2.20	21.21	-9.01	62.73	6.26	-0.43	-11.21	8.50	16.07	5.93	-11.20	2.38	-2.85	-0.31	-13.24	-18.99	9.82	4.71	-63.37	2.72	-17.13	-1.78	-3.41	2.48	-0.73	7.27	-14.29	7.86	-21.84	37.84	-26.51	3.10	4.35	1.87	-31.56	4.22	-6.45	-7.87	37.66	20.65	-1.00	13.36	2.72	-12.48	-8.51	-0.76	-3.49	3.88	-3.17	3.04	11.99	10.79	-6.24	6.30	6.36
-0.03	4.17	-1.70	21.88	-9.24	64.11	6.09	-0.26	-11.98	8.92	15.18	5.96	-11.24	1.79	-2.98	0.58	-13.11	-18.80	10.44	3.76	-64.87	3.36	-19.59	-3.11	-3.23	2.48	-0.69	8.02	-14.27	7.54	-20.13	38.12	-26.89	3.02	4.59	1.64	-29.45	3.99	-6.05	-6.26	37.88	17.15	-0.76	15.91	3.58	-13.53	-6.20	-0.27	-3.48	5.57	-4.77	3.01	13.49	11.21	-6.42	4.00	6.15
0.69	4.28	-1.18	22.47	-9.40	65.52	5.95	-0.31	-12.53	9.25	14.44	6.09	-11.21	1.32	-3.07	1.40	-12.97	-18.88	11.22	3.32	-65.37	3.61	-22.03	-4.15	-2.94	2.48	-0.62	8.70	-14.18	7.30	-18.81	37.89	-25.09	2.98	5.06	1.34	-28.29	3.87	-5.83	-4.65	37.89	13.65	-0.54	18.40	4.27	-14.72	-3.38	0.46	-3.30	7.70	-5.57	2.94	14.12	10.86	-6.33	1.68	5.88
1.60	4.37	-0.63	22.93	-9.55	66.85	5.71	-0.57	-12.74	9.59	13.99	6.16	-11.09	0.94	-3.11	2.21	-13.23	-18.94	12.03	3.64	-66.10	3.88	-24.34	-5.38	-3.32	2.48	-0.70	9.13	-14.48	7.19	-17.42	37.74	-21.85	2.64	5.24	1.14	-26.27	3.67	-5.45	-3.06	37.89	10.09	-0.39	20.49	4.59	-15.92	-0.07	1.45	-2.89	9.67	-6.40	2.90	14.83	10.40	-7.05	-0.33	5.73
2.65	4.45	-0.05	23.43	-9.24	68.40	4.30	-0.61	-12.74	10.63	13.52	6.02	-10.92	0.60	-3.12	3.36	-13.58	-19.37	13.19	4.46	-66.10	4.03	-26.29	-6.66	-3.12	2.48	-0.66	10.29	-15.03	6.93	-16.45	37.22	-21.52	2.07	4.71	1.26	-23.64	3.43	-4.93	-1.67	37.80	6.20	-0.33	22.14	4.61	-17.40	3.53	2.72	-2.67	11.59	-7.72	2.86	15.37	10.10	-8.09	-2.22	5.57
3.16	4.43	0.50	23.28	-9.29	69.42	4.33	-1.25	-12.70	10.49	13.43	6.40	-10.91	0.19	-3.20	3.43	-13.67	-19.35	14.46	5.77	-65.18	3.97	-27.50	-7.35	-2.41	2.47	-0.51	10.54	-15.09	7.18	-15.83	36.14	-13.73	1.30	4.99	1.06	-20.82	3.20	-4.37	-0.18	37.13	2.73	-0.33	24.21	4.35	-18.95	6.25	3.92	-2.05	12.77	-9.50	2.86	16.35	10.55	-9.24	-4.23	5.32
4.00	4.36	1.04	23.00	-9.35	70.44	4.46	-1.69	-12.47	10.27	13.36	6.73	-11.08	-0.22	-3.33	3.35	-13.74	-19.42	15.58	7.42	-63.59	4.08	-27.88	-7.95	-2.03	2.47	-0.43	10.62	-15.16	7.34	-15.50	34.44	-9.85	0.51	4.88	1.02	-17.40	2.96	-3.68	1.35	35.94	0.52	-0.39	27.06	3.90	-18.88	8.21	4.55	-1.39	13.81	-11.25	2.82	17.21	11.11	-9.77	-6.33	4.98
4.76	4.26	1.51	22.68	-9.29	71.69	4.63	-1.52	-12.18	10.02	12.98	7.00	-11.45	-0.50	-3.50	2.85	-12.35	-18.73	17.24	7.36	-61.71	3.92	-26.74	-7.00	-1.37	2.47	-0.29	11.35	-14.23	7.07	-16.16	30.82	-4.48	-1.13	4.43	1.22	-13.16	2.72	-2.80	2.86	33.59	0.11	-0.55	31.65	3.33	-15.22	9.34	3.88	-0.77	14.60	-12.85	2.78	18.06	11.43	-10.17	-8.31	4.62
5.13	4.09	1.94	21.97	-9.72	73.01	6.21	-2.00	-11.93	8.77	13.46	7.13	-11.79	-0.78	-3.67	1.98	-12.25	-18.40	17.19	8.84	-59.14	3.55	-23.85	-5.06	-1.09	2.46	-0.23	10.74	-13.86	7.58	-15.98	27.89	-1.88	-3.98	4.41	1.56	-9.98	2.58	-2.13	4.96	30.01	0.57	-0.78	38.16	3.25	-9.88	9.17	2.38	0.43	14.90	-14.12	2.77	19.07	11.34	-10.28	-10.27	4.26
5.50	3.89	2.30	21.56	-9.67	75.42	6.76	-1.31	-11.83	8.31	13.43	6.46	-11.94	-0.86	-3.74	1.79	-11.69	-17.91	16.71	8.52	-55.78	2.97	-19.29	-3.02	-0.82	2.46	-0.17	10.55	-13.40	7.50	-15.89	23.38	2.42	-6.41	5.82	1.55	-4.75	2.44	-1.02	6.98	24.97	-0.61	-1.08	45.71	4.12	-8.02	10.97	2.13	1.45	15.13	-16.41	2.76	20.02	11.04	-10.46	-12.10	3.91
5.95	3.68	2.63	21.37	-9.52	78.11	7.38	0.03	-11.46	7.73	13.50	5.24	-11.71	-0.83	-3.65	1.09	-10.13	-17.29	16.58	6.64	-48.79	1.20	-13.62	-0.57	-18.25	3.08	-3.82	10.99	-11.87	7.54	-17.45	17.08	2.40	-6.75	7.33	1.76	-2.81	2.41	-0.60	9.09	18.80	-1.09	-0.69	53.65	3.98	-9.15	16.99	3.36	2.47	15.17	-18.42	2.70	21.21	10.20	-10.78	-13.85	3.54
6.30	3.47	2.91	21.56	-8.90	80.90	7.30	2.01	-10.61	7.47	13.87	3.47	-11.21	-0.61	-3.45	0.31	-8.89	-16.78	16.09	4.34	-41.62	0.38	-7.56	0.12	-15.24	2.89	-3.20	11.37	-10.82	7.67	-19.51	12.01	0.96	-5.76	6.82	2.20	-6.84	2.48	-1.46	9.99	11.86	-2.32	-0.01	62.09	3.15	-12.85	23.07	6.08	3.04	15.05	-20.14	2.58	22.74	8.79	-11.26	-15.40	3.17
6.26	3.22	3.15	21.15	-8.69	83.50	8.46	2.93	-10.00	6.21	15.28	1.90	-10.45	-0.27	-3.15	-1.65	-8.55	-16.31	15.28	3.44	-34.99	0.75	-1.84	0.01	-16.93	2.99	-3.55	10.68	-10.08	8.58	-21.66	8.49	1.67	-4.43	5.15	2.28	-8.18	2.52	-1.75	10.95	3.67	-2.10	1.78	71.15	2.23	-11.68	26.97	6.17	4.08	14.24	-21.25	2.42	24.34	6.90	-11.51	-17.03	2.80
6.63	2.98	3.38	20.29	-8.96	85.57	10.49	2.59	-9.39	4.16	17.73	0.71	-9.43	0.81	-2.66	-4.04	-9.75	-16.79	13.86	5.63	-23.36	1.15	2.52	-0.28	-12.56	2.75	-2.65	9.01	-10.55	10.24	-23.37	7.55	5.17	-3.80	2.97	2.34	-6.30	2.47	-1.35	12.05	-4.72	-1.30	5.24	78.97	-1.92	-9.04	29.34	5.01	5.45	13.17	-22.00	2.27	25.64	5.18	-11.65	-18.38	2.50
7.06	2.91	3.64	20.34	-8.86	86.93	11.16	3.41	-8.31	2.67	19.86	-0.56	-8.58	1.89	-2.25	-5.37	-11.31	-17.30	12.68	8.85	-12.00	0.95	4.57	0.01	-15.41	2.90	-3.24	7.81	-11.85	11.71	-24.54	7.49	9.40	-3.93	0.25	2.80	-3.60	2.42	-0.77	12.76	-10.87	-0.09	10.26	83.49	-8.73	-6.95	31.78	4.02	6.43	13.47	-22.40	2.11	25.95	3.61	-11.99	-19.09	2.28
7.74	2.94	3.87	19.69	-8.43	87.87	11.51	3.37	-7.24	0.84	21.53	-1.23	-8.30	2.72	-2.05	-6.92	-12.91	-17.44	12.61	13.41	-2.56	-1.29	5.02	1.16	-16.25	2.95	-3.41	6.27	-13.26	13.24	-25.09	8.12	11.93	-3.92	-3.14	3.64	-5.59	2.46	-1.20	13.12	-16.24	0.94	11.47	85.24	-13.87	-7.52	32.73	4.47	7.10	13.71	-22.64	1.99	25.22	2.41	-12.27	-19.47	2.13
7.97	3.12	4.03	18.53	-7.60	88.38	11.56	4.53	-6.04	-1.11	20.88	-1.44	-8.28	2.91	-2.02	-8.41	-11.70	-15.87	14.44	14.05	1.11	-3.50	5.57	2.42	-23.82	3.50	-4.92	5.23	-11.55	13.17	-26.68	4.24	14.24	-4.21	-6.73	4.29	-2.84	2.41	-0.61	13.01	-20.75	2.00	5.96	84.38	-12.01	-8.35	31.29	4.83	7.27	13.87	-22.45	1.88	23.27	1.37	-11.99	-19.08	2.28
8.45	3.40	4.18	16.81	-6.48	89.19	10.96	4.72	-5.37	-2.95	20.12	-1.28	-8.09	2.42	-2.04	-9.67	-11.35	-14.65	16.29	16.81	-1.25	-5.49	6.53	3.59	-2.23	2.47	-0.47	4.08	-10.67	13.51	-27.20	1.87	14.85	-3.98	-9.05	5.26	-7.76	2.51	-1.66	12.43	-24.17	2.66	0.58	80.83	-9.75	-7.09	28.15	3.75	7.27	14.39	-23.58	1.87	19.90	1.55	-11.88	-18.18	2.49
8.99	3.72	4.30	14.56	-5.42	90.08	10.36	4.18	-4.91	-4.87	19.23	-1.04	-7.69	1.57	-2.05	-11.03	-11.41	-13.58	18.08	20.15	-10.78	-6.79	6.85	4.59	-5.89	2.53	-1.25	2.47	-10.16	14.06	-26.74	0.31	17.35	-4.39	-10.74	5.87	-6.89	2.49	-1.48	11.48	-26.50	2.36	-1.44	74.75	-8.92	-7.94	23.01	3.63	7.41	14.86	-25.25	1.92	15.71	2.45	-12.02	-16.59	2.79
9.76	4.08	4.42	12.69	-4.55	90.48	9.77	4.40	-4.09	-6.73	17.93	-0.92	-7.30	0.57	-2.08	-12.26	-11.22	-12.31	19.77	22.75	-23.03	-7.55	6.54	5.39	-10.15	2.65	-2.15	1.01	-9.20	14.16	-26.34	-1.83	20.73	-5.07	-12.13	7.34	-9.68	2.57	-2.07	10.70	-26.52	2.36	-2.16	66.19	-8.27	-7.04	16.70	2.50	7.77	16.36	-26.06	1.97	10.35	3.27	-11.00	-14.59	3.37
9.83	4.38	4.52	10.43	-4.00	90.91	9.45	4.11	-3.30	-8.57	16.73	-0.89	-7.06	-0.45	-2.14	-13.11	-11.49	-11.14	20.65	25.55	-33.02	-7.87	6.18	5.59	-7.76	2.57	-1.65	-0.41	-8.74	14.35	-25.53	-3.17	24.20	-6.01	-12.92	9.16	-13.02	2.71	-2.77	10.07	-25.68	2.34	-2.35	55.15	-7.20	-5.40	10.93	1.36	9.36	18.41	-28.39	1.96	2.45	3.90	-9.82	-11.49	4.08
10.46	4.63	4.60	7.93	-3.55	91.58	8.98	3.68	-2.55	-10.02	15.51	-1.02	-7.01	-1.46	-2.24	-13.54	-11.75	-10.10	20.94	27.81	-44.09	-8.04	5.22	5.95	-8.53	2.60	-1.81	-1.37	-8.36	14.43	-24.87	-4.15	27.79	-7.07	-13.63	10.85	-14.31	2.78	-3.04	9.31	-24.08	1.72	-2.36	41.29	-6.25	-4.77	8.23	0.97	12.31	21.67	-30.91	1.84	-9.18	4.51	-8.67	-6.50	4.96
11.25	4.80	4.66	5.63	-3.00	92.64	8.04	4.03	-1.99	-10.86	13.92	-1.60	-6.89	-2.39	-2.32	-13.91	-10.87	-9.00	21.47	28.06	-48.64	-8.48	4.89	6.36	-8.53	2.60	-1.81	-1.42	-6.56	13.67	-25.05	-6.82	31.74	-8.64	-14.04	13.17	-15.86	2.86	-3.36	8.03	-21.15	-1.46	-2.26	24.97	-3.90	-5.22	7.81	1.04	12.12	20.18	-32.34	1.90	-9.18	5.21	-8.35	-7.40	4.82
